<svg width="151" height="198" viewBox="0 0 151 198" fill="none" xmlns="http://www.w3.org/2000/svg">
<path d="M62.142 71.171L62.1413 71.1711C53.3693 72.246 43.6338 75.1111 32.872 80.029L32.8583 80.0352C22.392 84.8021 10.7083 75.7702 13.0229 64.2917C13.0231 64.2908 13.0233 64.2899 13.0235 64.289L18.2464 38.3812L18.2505 38.3609C19.0597 34.3823 21.566 30.7865 25.353 28.7144L25.3573 28.712C32.0482 25.0546 39.7386 21.8718 48.3172 19.0954L48.3256 19.0926C57.4114 16.1595 66.3053 14.1289 74.9923 13.0631L62.142 71.171ZM62.142 71.171C65.9824 70.7001 68.3703 70.8362 69.6797 71.0925C69.741 71.428 69.8008 71.88 69.8369 72.4712C69.9641 74.5542 69.7493 77.6509 68.8774 81.9773C68.8773 81.9779 68.8772 81.9785 68.8771 81.9792L51.457 168.34L51.4564 168.343C49.5411 177.85 57.5001 186.448 67.1285 185.265C67.13 185.265 67.1316 185.265 67.1331 185.265L105.483 180.556C105.491 180.555 105.498 180.554 105.505 180.553C105.506 180.553 105.507 180.553 105.508 180.553C111.619 179.805 116.496 175.222 117.707 169.274L117.711 169.253L136.36 76.7817C136.36 76.7814 136.36 76.7812 136.36 76.7809C140.457 56.4726 139.556 37.5012 127.648 24.9856L127.646 24.9826M62.142 71.171L127.646 24.9826M127.646 24.9826C115.777 12.5172 96.3459 10.4406 74.9943 13.0629L127.646 24.9826Z" stroke="#E22018" stroke-width="24" stroke-linecap="round" stroke-linejoin="round"/>
<path d="M61.6552 67.2007L61.6548 67.2008C52.3915 68.3359 42.2577 71.3421 31.2095 76.3908L31.2003 76.395C23.6738 79.8229 15.2814 73.327 16.944 65.0822C16.9442 65.0816 16.9443 65.081 16.9444 65.0804L22.1675 39.1717L22.1702 39.1581L22.1702 39.1581C22.7532 36.292 24.5563 33.71 27.273 32.2235L27.2759 32.2219C33.6987 28.711 41.1483 25.6199 49.5489 22.901L49.5545 22.8992C58.429 20.0342 67.0742 18.0645 75.48 17.0333L61.6552 67.2007ZM61.6552 67.2007C65.9728 66.6714 68.9195 66.8132 70.7924 67.2398C71.6921 67.4447 72.2154 67.6867 72.4912 67.8521C72.7316 67.9962 72.8074 68.0939 72.8314 68.1275M61.6552 67.2007L66.6441 181.295M124.749 27.7408L124.751 27.7428C135.246 38.7735 136.473 55.994 132.439 75.9901C132.439 75.9903 132.439 75.9905 132.439 75.9907L113.79 168.463L113.787 168.476C112.917 172.753 109.409 176.046 105.02 176.583L105.004 176.585M124.749 27.7408L105.004 176.585M124.749 27.7408C114.28 16.7454 96.6041 14.4388 75.4813 17.0332L124.749 27.7408ZM105.004 176.585L66.6441 181.295M105.004 176.585L66.6441 181.295M66.6441 181.295C66.643 181.295 66.642 181.295 66.641 181.295C59.722 182.145 54.0011 175.966 55.3776 169.133L55.378 169.131L72.7982 82.7695C72.7983 82.769 72.7984 82.7686 72.7985 82.7682C73.7113 78.2388 73.9849 74.7734 73.8294 72.2274C73.6724 69.6547 73.1103 68.5228 72.8314 68.1275M72.8314 68.1275L79.3686 63.5161M72.8314 68.1275C72.8325 68.129 72.8335 68.1304 72.8344 68.1316L79.3686 63.5161M79.3686 63.5161C82.2059 67.5383 82.6299 74.4793 80.6405 84.35L79.3686 63.5161Z" stroke="#FE5F00" stroke-width="16" stroke-linecap="round" stroke-linejoin="round"/>
<path d="M61.1685 63.2304L61.1683 63.2305C51.4137 64.4258 40.8815 67.5732 29.547 72.7527L29.5424 72.7548C24.9556 74.8438 19.8543 70.8837 20.8652 65.8725C20.8652 65.8723 20.8653 65.872 20.8653 65.8718L26.0886 39.9621L26.09 39.9554C26.4467 38.2016 27.5466 36.6334 29.1931 35.7325L29.1945 35.7317C35.3492 32.3674 42.5581 29.3679 50.7806 26.7067L50.7834 26.7058C59.4467 23.909 67.8431 22.0001 75.9676 21.0035L61.1685 63.2304ZM61.1685 63.2304C65.7324 62.6709 69.187 62.7717 71.6807 63.3397C74.1265 63.8967 75.4038 64.8374 76.1 65.8218C76.9488 67.025 77.6375 68.9613 77.822 71.9836C78.0057 74.9925 77.6732 78.8267 76.7195 83.5591C76.7195 83.5593 76.7194 83.5595 76.7194 83.5597L59.299 169.922L59.2988 169.923C58.4611 174.081 61.9439 177.843 66.1535 177.325C66.154 177.325 66.1545 177.325 66.155 177.325L104.525 172.613C104.525 172.613 104.526 172.613 104.527 172.613C107.197 172.29 109.337 170.287 109.867 167.679L109.869 167.672L128.518 75.1997C128.518 75.1996 128.518 75.1995 128.518 75.1994C132.489 55.5154 130.935 40.0457 121.853 30.5L121.852 30.499M61.1685 63.2304L121.852 30.499M121.852 30.499C112.783 20.9736 96.8624 18.4371 75.9683 21.0034L121.852 30.499Z" fill="white" stroke="#F7AE25" stroke-width="8" stroke-linecap="round" stroke-linejoin="round"/>
</svg>
