<svg width="215" height="213" viewBox="0 0 215 213" fill="none" xmlns="http://www.w3.org/2000/svg">
<path d="M54.369 28.5625L54.4118 28.5572L92.7865 23.8453C92.7881 23.8451 92.7897 23.8449 92.7912 23.8447C102.42 22.6617 110.379 31.2599 108.463 40.7668L108.463 40.7691L103.79 63.9418L117.207 62.2948C117.207 62.2947 117.207 62.2947 117.208 62.2947C123.219 61.5565 126.016 59.8396 127.311 58.5088C129.033 56.7335 130.952 53.4095 132.175 47.3419L132.176 47.3406L136.008 28.3438L136.012 28.3238C137.223 22.3733 142.104 17.7895 148.218 17.0441C148.224 17.0434 148.23 17.0427 148.235 17.042L186.857 12.3005C186.859 12.3003 186.86 12.3001 186.862 12.2999C196.49 11.1171 204.449 19.7151 202.534 29.222L202.533 29.2252L198.772 47.8679C198.772 47.8681 198.772 47.8684 198.772 47.8687C195.695 63.126 189.601 76.0208 179.973 85.5938C181.325 87.6575 182.419 89.9219 183.233 92.3725L183.241 92.3979C185.868 100.37 185.584 109.41 183.705 118.702C183.705 118.704 183.704 118.706 183.704 118.709L172.796 172.79L172.792 172.81C171.582 178.758 166.704 183.341 160.593 184.089L160.569 184.092M54.369 28.5625L159.131 172.179L160.569 184.092M54.369 28.5625C48.3423 29.3245 43.4185 33.8491 42.2122 39.8663M54.369 28.5625L42.2122 39.8663M160.569 184.092L121.952 188.834L160.569 184.092ZM42.2122 39.8663C42.2107 39.8737 42.2092 39.8812 42.2077 39.8886L13.2815 183.324L13.281 183.326C11.3657 192.833 19.3247 201.432 28.9531 200.249C28.9546 200.248 28.9562 200.248 28.9577 200.248L67.3079 195.539C67.3161 195.538 67.3243 195.537 67.3325 195.536L42.2122 39.8663Z" stroke="#E22018" stroke-width="24" stroke-linecap="round" stroke-linejoin="round"/>
<path d="M54.8708 32.5309L54.8993 32.5274L93.2756 27.8153C93.2766 27.8151 93.2777 27.815 93.2787 27.8149C100.198 26.9646 105.919 33.1442 104.542 39.9768L104.542 39.9784L98.7721 68.5877L117.695 66.2649C117.695 66.2649 117.695 66.2649 117.695 66.2649C124.255 65.4594 128.036 63.4996 130.179 61.2977C132.604 58.7993 134.777 54.6774 136.097 48.1324L136.097 48.1315L139.929 29.1347L139.931 29.1214C140.802 24.8425 144.312 21.5491 148.704 21.0145C148.708 21.014 148.711 21.0136 148.715 21.0132L187.346 16.2705C187.347 16.2704 187.348 16.2703 187.348 16.2702C187.349 16.2702 187.349 16.2701 187.349 16.2701C194.268 15.4199 199.989 21.5994 198.613 28.432L198.612 28.4342L194.851 47.0771C194.851 47.0773 194.851 47.0774 194.851 47.0776C191.622 63.0898 185.022 76.0504 174.605 85.1268C176.737 87.5586 178.365 90.4056 179.437 93.6329L179.442 93.6497C181.768 100.707 181.591 108.976 179.784 117.911C179.784 117.913 179.783 117.914 179.783 117.916L168.875 171.999L168.872 172.013C168.002 176.29 164.495 179.582 160.106 180.119L160.089 180.121M54.8708 32.5309L159.131 172.179L160.089 180.121M54.8708 32.5309C50.5377 33.0788 46.9997 36.3325 46.1339 40.6539L46.1352 40.6473L53.9773 42.2288L46.1309 40.6687L17.2025 184.115L17.2022 184.116C15.8257 190.949 21.5466 197.129 28.4656 196.278L54.8708 32.5309ZM160.089 180.121L121.463 184.864M160.089 180.121L121.463 184.864M121.463 184.864C114.543 185.716 108.82 179.536 110.197 172.702L110.197 172.7L119.654 125.816L121.463 184.864ZM66.8286 191.568L66.845 191.566C71.234 191.029 74.7414 187.737 75.6118 183.46L75.6144 183.446L88.6498 118.832L112.051 115.959C115.527 115.533 117.848 115.615 119.273 115.888C119.714 115.973 120.005 116.062 120.184 116.13C120.269 116.399 120.392 116.917 120.452 117.795C120.572 119.569 120.386 122.186 119.655 125.814L65.87 183.625L66.8286 191.568ZM66.8286 191.568L28.4687 196.278L66.8286 191.568ZM120.427 116.242C120.426 116.242 120.419 116.238 120.405 116.228C120.42 116.237 120.427 116.242 120.427 116.242Z" stroke="#FE5F00" stroke-width="16" stroke-linecap="round" stroke-linejoin="round"/>
<path d="M55.3797 36.4984L55.3868 36.4976L93.7646 31.7853C93.7652 31.7852 93.7657 31.7851 93.7662 31.7851C97.9758 31.2675 101.459 35.0286 100.621 39.1868L100.621 39.1876L93.7547 73.2336L118.182 70.2351C118.182 70.2351 118.182 70.2351 118.182 70.2351C125.293 69.362 130.059 67.1587 133.048 64.0843C136.176 60.8621 138.603 55.9425 140.018 48.9229L140.018 48.9224L143.85 29.9257L143.851 29.919C144.382 27.3121 146.52 25.3094 149.189 24.985C149.19 24.9848 149.192 24.9846 149.194 24.9844L187.835 20.2405C187.836 20.2404 187.836 20.2404 187.836 20.2403C187.836 20.2403 187.837 20.2403 187.837 20.2403C192.046 19.7228 195.529 23.4838 194.691 27.642L194.691 27.6431L190.93 46.2863C190.93 46.2864 190.93 46.2865 190.93 46.2865C187.47 63.4401 180.093 76.4992 168.487 84.8813C171.863 87.43 174.277 90.7875 175.64 94.8932L175.643 94.9016C177.668 101.045 177.598 108.541 175.863 117.121C175.863 117.121 175.863 117.122 175.863 117.123L164.954 171.208L164.953 171.215C164.422 173.821 162.285 175.824 159.617 176.149L159.618 176.149L159.131 172.179L159.61 176.15L55.3797 36.4984ZM55.3797 36.4984L55.3725 36.4993L55.3797 36.4984ZM71.6934 182.655L71.6921 182.662C71.1618 185.268 69.0249 187.27 66.3575 187.596L71.6934 182.655ZM71.6934 182.655L85.2992 115.213M71.6934 182.655L85.2992 115.213M85.2992 115.213L111.564 111.989C115.261 111.535 118.039 111.578 120.026 111.96C122.001 112.338 122.876 112.983 123.276 113.474L85.2992 115.213ZM120.974 180.894L120.485 176.924L120.972 180.894C120.973 180.894 120.973 180.894 120.974 180.894ZM123.575 126.606L127.497 127.396L123.576 126.605L123.575 126.606ZM166.147 83.3323C166.148 83.333 166.149 83.3337 166.15 83.3344C166.149 83.3337 166.148 83.333 166.147 83.3323ZM27.9796 192.308L27.4906 188.338L27.9781 192.308C27.9786 192.308 27.9791 192.308 27.9796 192.308ZM53.9773 42.2288L50.0563 41.4381L50.0554 41.4425C50.055 41.4446 50.0546 41.4467 50.0541 41.4487L53.9773 42.2288Z" fill="white" stroke="#F7AE25" stroke-width="8"/>
</svg>
