<svg width="183" height="206" viewBox="0 0 183 206" fill="none" xmlns="http://www.w3.org/2000/svg">
<path d="M44.9883 193.193L44.9861 193.193C36.3326 192.922 28.6309 191.994 22.2632 190.109C15.109 187.994 10.9431 180.799 12.3495 173.699L12.3577 173.657L18.4345 143.529L18.4364 143.52C20.0771 135.419 28.4422 130.145 36.6954 132.797C40.9922 134.178 46.166 135.206 52.3045 135.773L52.3186 135.775C59.3958 136.437 65.9276 136.364 71.9242 135.627L71.9278 135.627C80.0527 134.631 85.3859 133.486 88.5512 132.46C86.167 131.712 83.0435 130.82 79.0564 129.797L69.4703 127.541C69.3766 127.519 69.2832 127.496 69.1901 127.472C55.8502 123.992 44.3515 118.835 36.9688 110.756C36.9681 110.755 36.9674 110.754 36.9667 110.753C36.9659 110.752 36.9652 110.752 36.9645 110.751C28.2367 101.203 27.2217 88.3241 29.7994 75.546L44.9883 193.193ZM44.9883 193.193C54.9131 193.503 65.405 192.968 76.4517 191.603C97.7608 188.983 115.991 182.851 130.44 172.545C130.441 172.544 130.442 172.543 130.443 172.542C145.139 162.066 154.585 148.042 158.061 130.792C159.879 121.776 160.399 113.06 158.324 105.526L158.32 105.514C156.055 97.3208 150.814 91.0035 143.784 86.5185L143.779 86.5153C137.393 82.4462 128.776 79.1354 118.649 76.28C118.605 76.2676 118.561 76.2556 118.517 76.2437C118.472 76.2316 118.427 76.2197 118.382 76.2081C115.533 75.4753 113.046 74.8543 110.941 74.3596L110.91 74.3525C109.058 73.9224 107.606 73.5473 106.529 73.2403C106.319 73.1804 106.107 73.1262 105.894 73.0779M44.9883 193.193L105.894 73.0779M56.5814 33.7331L56.582 33.7327C70.9141 22.6197 89.3972 16.1024 111.162 13.4284L111.163 13.4282C119.955 12.349 128.871 11.9265 137.908 12.141L137.924 12.1414C145.627 12.3348 152.467 12.8801 158.329 13.8622L56.5814 33.7331ZM56.5814 33.7331C42.3974 44.7328 33.189 58.7232 29.8002 75.5419L56.5814 33.7331ZM169.916 30.6717L169.91 30.6999L163.931 60.3555L163.929 60.3665C162.303 68.3947 154.188 73.4855 146.164 71.2332L146.136 71.2253C142.571 70.2151 138.118 69.4724 132.666 69.1162L169.916 30.6717ZM169.916 30.6717C171.457 22.9332 166.373 15.2098 158.331 13.8625L169.916 30.6717ZM105.894 73.0779C104.435 72.7469 103.112 72.4308 101.916 72.1312C105.231 71.0828 109.581 70.1532 115.134 69.4715L105.894 73.0779ZM91.941 130.462C91.9417 130.445 91.9426 130.436 91.9429 130.436C91.9431 130.436 91.9428 130.444 91.941 130.462ZM115.137 69.4712C120.341 68.836 126.17 68.6949 132.661 69.1159L115.137 69.4712Z" stroke="#E22018" stroke-width="24" stroke-linecap="round" stroke-linejoin="round"/>
<path d="M45.113 189.195L45.1116 189.195C36.6286 188.929 29.3055 188.023 23.397 186.273C23.3952 186.272 23.3935 186.272 23.3918 186.271C18.2577 184.751 15.2617 179.583 16.2733 174.476L16.2788 174.448L22.3556 144.32L22.3568 144.314C23.5376 138.484 29.5528 134.703 35.4716 136.606L45.113 189.195ZM45.113 189.195C54.8078 189.498 65.0926 188.976 75.9611 187.633M45.113 189.195L75.9611 187.633M51.9364 139.756L51.9458 139.757C59.2765 140.444 66.0987 140.373 72.4119 139.597L72.4143 139.597C82.8348 138.32 89.2025 136.752 92.3868 135.266L92.3907 135.264C94.8502 134.118 95.5419 132.897 95.8149 131.542L95.8153 131.54C95.8652 131.293 95.8961 131.086 95.9146 130.917C93.6487 129.822 88.6328 128.123 80.0116 125.912L70.3865 123.647C70.324 123.633 70.2618 123.617 70.1997 123.601C57.1249 120.191 46.5257 115.285 39.9207 108.056C32.4144 99.8477 31.2645 88.5103 33.7206 76.3358L51.9364 139.756ZM51.9364 139.756C45.5714 139.168 40.1029 138.094 35.4743 136.606L51.9364 139.756ZM59.0327 36.894L59.0331 36.8937C72.6371 26.3453 90.3711 20.0128 111.65 17.3985L111.651 17.3984C120.242 16.3438 128.964 15.9298 137.813 16.1398L137.824 16.1401C145.412 16.3307 152.052 16.8663 157.669 17.8073L59.0327 36.894ZM59.0327 36.894C45.5255 47.3688 36.9007 60.5512 33.7211 76.3331L59.0327 36.894ZM165.993 29.8906L165.989 29.9094L160.01 59.565L160.009 59.5723C158.839 65.3448 153.007 68.9995 147.245 67.382L147.226 67.3767C143.327 66.2719 138.583 65.494 132.922 65.1244C126.222 64.6898 120.141 64.8309 114.654 65.5004C106.526 66.4977 100.605 68.0429 96.5748 69.885L165.993 29.8906ZM165.993 29.8906C167.102 24.3221 163.443 18.7745 157.67 17.8075L165.993 29.8906ZM92.3938 73.4435C94.6803 74.3503 98.7376 75.5559 105.009 76.9787C105.151 77.011 105.292 77.0471 105.432 77.087C106.588 77.4167 108.108 77.8081 110.005 78.2488L110.026 78.2536C112.092 78.7392 114.55 79.3525 117.385 80.082C117.428 80.0928 117.47 80.104 117.512 80.1156C117.529 80.1203 117.546 80.1251 117.563 80.1299C127.547 82.9448 135.729 86.1286 141.629 89.8885L141.632 89.8907C147.96 93.9279 152.502 99.4802 154.465 106.58L154.467 106.588C156.302 113.248 155.904 121.25 154.14 130.002C150.877 146.194 142.043 159.361 128.121 169.286L92.3938 73.4435ZM92.3938 73.4435C92.8362 72.3572 93.8815 71.1183 96.5741 69.8854L92.3938 73.4435ZM75.9611 187.633C96.8164 185.07 114.358 179.102 128.118 169.288L75.9611 187.633ZM92.104 74.608C92.1039 74.608 92.1038 74.605 92.104 74.599C92.1041 74.6049 92.104 74.6079 92.104 74.608Z" stroke="#FE5F00" stroke-width="16" stroke-linecap="round" stroke-linejoin="round"/>
<path d="M45.3624 181.199C37.2202 180.944 30.6542 180.079 25.6645 178.601C24.5611 178.275 23.898 177.155 24.1209 176.03L30.1976 145.902C30.4585 144.613 31.7739 143.82 33.0241 144.222C38.3181 145.923 44.3786 147.092 51.2001 147.722C59.0379 148.456 66.4409 148.391 73.3874 147.538C83.8995 146.249 91.3568 144.575 95.7704 142.515C100.178 140.461 102.809 137.33 103.657 133.123C104.505 128.921 103.445 125.975 100.488 124.285C97.526 122.6 91.3405 120.556 81.921 118.143L72.2188 115.86C59.6739 112.588 50.8739 108.185 45.8244 102.657C40.7695 97.1297 39.3509 88.8787 41.5631 77.9155C44.3243 64.2074 51.7816 52.6409 63.9352 43.2159C76.0833 33.7963 92.3189 27.8337 112.626 25.3388C120.817 24.3333 129.149 23.9365 137.623 24.1376C144.983 24.3224 151.222 24.8388 156.348 25.6976C157.582 25.9041 158.392 27.0999 158.147 28.3283L152.168 57.9839C151.913 59.2449 150.646 60.0276 149.407 59.6797C144.841 58.3861 139.52 57.5382 133.443 57.1414C126.323 56.6794 119.735 56.8207 113.68 57.5599C105.13 58.6089 98.3141 60.2939 93.2483 62.6094C88.1771 64.9303 85.1985 68.2785 84.3126 72.6649C83.6114 76.1381 84.6822 78.5949 87.5194 80.0245C90.3567 81.4594 95.5964 83.0465 103.239 84.7804C104.554 85.1555 106.206 85.5794 108.196 86.0415C110.185 86.5089 112.582 87.1068 115.392 87.8297C125.089 90.5637 132.4 93.4934 137.33 96.6351C142.254 99.7767 145.396 103.799 146.754 108.713C148.108 113.626 147.956 120.198 146.298 128.421C143.461 142.499 135.851 153.951 123.475 162.773C111.093 171.606 94.9279 177.242 74.98 179.693C64.4679 180.993 54.5972 181.487 45.3624 181.199Z" fill="white" stroke="#F7AE25" stroke-width="8" stroke-linecap="round" stroke-linejoin="round"/>
</svg>
