<svg width="208" height="208" viewBox="0 0 208 208" fill="none" xmlns="http://www.w3.org/2000/svg">
<path d="M22.1194 134.947L22.1192 134.949L13.2812 178.796L13.281 178.797C11.3657 188.304 19.3247 196.902 28.9531 195.719C28.9547 195.719 28.9563 195.719 28.9579 195.719L67.3079 191.01C67.3121 191.009 67.3163 191.009 67.3205 191.008C73.4369 190.264 78.3203 185.68 79.5314 179.728L79.5355 179.707L88.5634 134.943C88.5635 134.943 88.5637 134.942 88.5638 134.941C89.9086 128.28 91.7721 124.389 93.4403 122.278L93.4519 122.263C94.8804 120.449 97.5833 118.276 102.529 116.247C102.531 116.246 102.533 116.246 102.534 116.245C106.738 114.522 110.121 110.771 111.101 105.892C111.101 105.888 111.102 105.885 111.103 105.881L115.116 85.9849L115.118 85.9758C116.278 80.1985 113.761 74.5435 109.19 71.4236C110.962 71.0386 112.748 70.7358 114.55 70.5146L114.552 70.5143C119.525 69.9026 123.011 69.9598 125.298 70.3245C126.365 70.4947 126.993 70.7015 127.321 70.837C127.388 71.0591 127.471 71.4116 127.538 71.9354C127.767 73.7239 127.689 76.6932 126.784 81.1779L126.784 81.1802L109.477 166.994L109.477 166.997C107.562 176.504 115.52 185.102 125.149 183.919C125.15 183.919 125.152 183.918 125.154 183.918L163.504 179.209C163.508 179.209 163.513 179.208 163.517 179.208C169.633 178.464 174.516 173.879 175.727 167.927L175.731 167.907L193.386 80.3699L193.386 80.3673C197.904 57.9402 195.859 37.4232 180.978 24.5189L180.975 24.5167C167.023 12.4242 145.522 10.1785 120.719 13.2221L120.719 13.2222C104.68 15.191 89.3155 19.5946 74.6596 26.4187L74.6568 26.4199C60.6743 32.9348 48.2101 40.4921 37.3494 49.15C37.3187 49.1745 37.2882 49.1991 37.2577 49.2238C34.732 51.2781 32.9367 54.1745 32.2728 57.4712C32.2724 57.4732 32.272 57.4751 32.2716 57.477C32.2707 57.4813 32.2699 57.4856 32.269 57.4898L25.3708 91.699C25.3693 91.7063 25.3678 91.7136 25.3663 91.7208C24.0058 98.4276 27.6006 104.923 33.5489 107.549C27.9762 115.229 24.2284 124.489 22.1194 134.947ZM127.199 70.5212C127.2 70.5205 127.207 70.5326 127.22 70.5598C127.205 70.5356 127.198 70.522 127.199 70.5212Z" stroke="#E22018" stroke-width="24" stroke-linecap="round" stroke-linejoin="round"/>
<path d="M26.0404 135.739L26.0405 135.738C28.5238 123.424 33.3264 113.072 40.6797 105.161L37.529 104.607L37.5216 104.605C31.8878 103.608 28.1393 98.1641 29.287 92.5134C29.2879 92.509 29.2888 92.5046 29.2897 92.5002L36.1913 58.2743C36.1919 58.2714 36.1925 58.2684 36.1931 58.2654C36.1934 58.2642 36.1936 58.2631 36.1938 58.2619C36.6709 55.8919 37.962 53.807 39.7817 52.327C39.802 52.3105 39.8223 52.2941 39.8428 52.2778C50.4242 43.8425 62.611 36.4453 76.3462 30.0457L76.348 30.0448C90.6245 23.3974 105.583 19.11 121.206 17.1924L121.206 17.1923C145.759 14.1795 165.751 16.6151 178.356 27.5394L178.357 27.5408C191.579 39.0064 193.888 57.6197 189.465 79.5774L189.464 79.5791L171.81 167.116L171.808 167.13C170.937 171.407 167.43 174.699 163.041 175.236L163.024 175.238M26.0404 135.739L162.066 167.296L163.024 175.238M26.0404 135.739L17.2024 179.586L17.2022 179.587C15.8257 186.42 21.5466 192.599 28.4656 191.749L26.0404 135.739ZM163.024 175.238L124.665 179.948M163.024 175.238L124.665 179.948M124.665 179.948C124.664 179.948 124.662 179.949 124.661 179.949C117.742 180.799 112.022 174.619 113.398 167.787L113.398 167.785L130.705 81.971L130.705 81.9694C132.751 71.8359 130.946 68.6522 130.248 67.9771C129.856 67.5978 128.729 66.8211 125.928 66.3744C123.14 65.9299 119.25 65.9063 114.064 66.5442L114.062 66.5444C108.057 67.2818 102.221 68.867 96.5336 71.3126C96.1927 71.4594 95.8556 71.6072 95.5225 71.7559M124.665 179.948L95.5225 71.7559M95.5225 71.7559L103.009 73.1221C103.01 73.1222 103.011 73.1223 103.011 73.1224C108.639 74.149 112.321 79.588 111.196 85.188L111.195 85.194L107.18 105.097C107.18 105.098 107.18 105.099 107.18 105.1C106.479 108.599 104.05 111.301 101.017 112.544C101.016 112.545 101.015 112.545 101.014 112.545C95.6434 114.748 92.2889 117.275 90.3094 119.788L90.3017 119.798C88.0988 122.586 86.0556 127.151 84.6427 134.151C84.6426 134.151 84.6426 134.151 84.6425 134.152L75.6145 178.917L75.6117 178.93C74.7414 183.207 71.2341 186.5 66.845 187.036L66.8286 187.038M95.5225 71.7559L65.87 179.096L66.8286 187.038M66.8286 187.038L28.4688 191.749L66.8286 187.038Z" stroke="#FE5F00" stroke-width="16" stroke-linecap="round" stroke-linejoin="round"/>
<path d="M29.9615 136.529L29.9616 136.529C32.948 121.719 39.3551 110.26 49.4131 102.637L38.2224 100.667L38.2187 100.667C34.7877 100.059 32.5085 96.7451 33.2072 93.3083C33.2077 93.306 33.2082 93.3037 33.2086 93.3015L40.1137 59.0588C40.1138 59.0579 40.114 59.0569 40.1142 59.056C40.4038 57.6114 41.1911 56.3367 42.3056 55.4302L42.3362 55.4056C52.6383 47.1929 64.5476 39.9559 78.0355 33.6715L78.0364 33.671C91.9336 27.2002 106.487 23.0291 121.693 21.1626L121.694 21.1626C145.996 18.1804 164.479 20.806 175.736 30.5621L175.737 30.5628C187.299 40.5896 189.872 57.2993 185.544 78.7875L185.543 78.7883L167.889 166.326L167.888 166.332C167.358 168.938 165.221 170.941 162.553 171.266L162.545 171.267M29.9615 136.529L162.066 167.296L162.545 171.267M29.9615 136.529L21.1235 180.377L21.1235 180.377C20.2857 184.535 23.7685 188.296 27.9781 187.779L29.9615 136.529ZM162.545 171.267L124.175 175.978L162.545 171.267ZM94.9552 67.6372C100.983 65.0451 107.187 63.3586 113.575 62.5742L113.576 62.5741C118.975 61.91 123.27 61.9001 126.558 62.4243C129.852 62.9497 131.854 63.9638 133.031 65.1032C135.341 67.3405 136.701 72.4844 134.626 82.761L134.626 82.7617L117.319 168.576L117.319 168.577C116.482 172.735 119.964 176.496 124.174 175.979L79.594 72.9155L79.595 72.9156M94.9552 67.6372L93.3732 63.9633L94.9534 67.6379C94.954 67.6377 94.9546 67.6374 94.9552 67.6372ZM94.9552 67.6372C90.675 69.4803 86.9238 71.4917 83.6777 73.6606M83.6777 73.6606L79.595 72.9156M83.6777 73.6606L102.292 77.0573M83.6777 73.6606C82.5114 74.44 81.4102 75.2396 80.3732 76.0592C80.738 75.7706 80.9464 75.3885 81.0212 75.0186C81.0214 75.0175 81.0217 75.0164 81.0219 75.0153C81.2153 74.0429 80.5735 73.0945 79.595 72.9156M79.595 72.9156L102.292 77.0573M102.292 77.0573L101.575 80.9925L78.8769 76.8507L102.292 77.0573ZM103.258 104.312L107.274 84.4032L107.274 84.4001C107.959 80.9914 105.719 77.6822 102.293 77.0574L99.3358 103.528L103.258 104.312ZM103.258 104.312L103.257 104.318C103.257 104.316 103.258 104.314 103.258 104.312ZM87.1668 117.313L87.163 117.318C84.4255 120.783 82.2027 126.023 80.7217 133.36C80.7216 133.36 80.7216 133.36 80.7216 133.36L71.6934 178.126L71.6921 178.133C71.1618 180.739 69.0249 182.741 66.3575 183.066L66.3493 183.067M87.1668 117.313L65.87 179.096L66.3493 183.067M87.1668 117.313C89.6975 114.1 93.7038 111.219 99.498 108.844L87.1668 117.313ZM66.3493 183.067L27.9797 187.779L66.3493 183.067ZM53.1068 100.112C53.1084 100.111 53.1101 100.11 53.1117 100.109L53.1104 100.11C53.1092 100.11 53.108 100.111 53.1068 100.112Z" fill="white" stroke="#F7AE25" stroke-width="8" stroke-linecap="round" stroke-linejoin="round"/>
</svg>
