<svg width="209" height="211" viewBox="0 0 209 211" fill="none" xmlns="http://www.w3.org/2000/svg">
<path d="M104.672 173.865C107.135 178.357 113.022 180.348 117.811 177.825C117.811 177.825 117.811 177.825 117.811 177.825C118.222 177.609 118.625 177.359 119.017 177.075L118.725 176.674L117.686 176.801C116.311 176.97 115.12 175.856 115.202 174.47M104.672 173.865L113.262 169.138L113.263 169.139L115.343 172.008L115.202 174.47M104.672 173.865L115.202 174.47M104.672 173.865L104.664 173.85L115.202 174.47M107.299 184.592C104.59 181.852 102.977 178.013 103.222 173.781L107.299 184.592ZM107.299 184.592C94.7509 191.612 81.224 196.037 66.79 197.811L66.7852 197.811C49.2762 199.956 33.2886 196.582 22.5864 184.049C11.987 171.648 10.6837 154.548 14.3849 136.196C14.3849 136.196 14.3849 136.196 14.3849 136.196L33.6968 40.4354L33.701 40.4149C34.9118 34.4646 39.7928 29.8809 45.9067 29.1352C45.9127 29.1345 45.9186 29.1338 45.9246 29.1331L84.2746 24.4242C84.276 24.424 84.2775 24.4238 84.2789 24.4237C84.279 24.4236 84.2792 24.4236 84.2793 24.4236C93.9077 23.2406 101.867 31.8387 99.9514 41.3457L99.9509 41.348L81.7043 131.826L81.7043 131.826C80.9973 135.331 80.9172 137.631 81.0531 138.987C81.0533 138.99 81.0536 138.992 81.0538 138.995C82.0523 139.139 83.739 139.199 86.3209 138.883L107.299 184.592ZM107.299 184.592C110.266 187.593 114.548 189.276 119.145 188.712L119.148 188.712L154.714 184.345C154.72 184.344 154.726 184.343 154.731 184.343C160.846 183.597 165.727 179.013 166.938 173.063L166.942 173.042L195.875 29.5749L195.875 29.5726C197.791 20.0656 189.832 11.4677 180.204 12.6505C180.203 12.6506 180.201 12.6507 180.2 12.6509C180.2 12.6509 180.199 12.651 180.199 12.6511L141.577 17.3926C141.571 17.3933 141.565 17.394 141.56 17.3947C135.446 18.1401 130.564 22.7239 129.353 28.6744L129.349 28.6951L109.32 128.021C106.619 130.284 103.41 132.43 99.6271 134.432C99.625 134.433 99.6229 134.435 99.6209 134.436C94.7687 136.999 90.3562 138.386 86.3235 138.882L107.299 184.592ZM81.2279 139.943C81.2278 139.943 81.2253 139.937 81.221 139.925C81.2259 139.937 81.2281 139.943 81.2279 139.943Z" stroke="#E22018" stroke-width="24" stroke-linecap="round" stroke-linejoin="round"/>
<path d="M108.363 179.349C95.4161 187.142 81.3752 191.988 66.3021 193.84L66.2989 193.841C49.5206 195.896 35.1248 192.577 25.6238 181.446C16.1943 170.411 14.7084 154.825 18.3059 136.987C18.3059 136.987 18.306 136.987 18.306 136.987L37.6179 41.2262L37.6207 41.2125C38.4913 36.9339 42.001 33.6406 46.3924 33.1057C46.3962 33.1052 46.4 33.1047 46.4038 33.1043L84.7637 28.3942C84.7642 28.3941 84.7647 28.394 84.7653 28.394C84.7658 28.3939 84.7663 28.3938 84.7668 28.3938C91.6858 27.5435 97.4067 33.7231 96.0302 40.5557L96.0299 40.5573L77.7832 131.035L77.7832 131.035C76.16 139.083 77.5019 141.608 77.8153 141.978C77.9399 142.125 79.5991 143.738 86.8109 142.853C91.401 142.288 96.2808 140.725 101.496 137.969C105.998 135.586 109.802 132.974 112.97 130.153L133.27 29.4858L133.273 29.472C134.144 25.193 137.654 21.8996 142.046 21.3651C142.049 21.3646 142.053 21.3642 142.056 21.3638L180.688 16.6211C180.689 16.6209 180.69 16.6208 180.691 16.6207C187.61 15.7705 193.331 21.95 191.954 28.7826L191.954 28.7841L163.021 172.252L163.018 172.265C162.148 176.542 158.641 179.835 154.252 180.372L154.235 180.374M108.363 179.349L153.277 172.431L154.235 180.374M108.363 179.349C110.263 182.959 114.26 185.281 118.659 184.742L118.661 184.742L154.235 180.374M108.363 179.349L154.235 180.374" stroke="#FE5F00" stroke-width="16" stroke-linecap="round" stroke-linejoin="round"/>
<path d="M41.5389 42.0169L41.5403 42.0101C42.0708 39.403 44.2093 37.4002 46.8784 37.076C46.88 37.0758 46.8815 37.0756 46.8831 37.0754L85.2527 32.3642C85.2533 32.3641 85.2538 32.364 85.2543 32.364C89.4639 31.8464 92.9467 35.6075 92.1089 39.7657L92.1088 39.7665L73.8622 130.244L69.9411 129.454L73.8622 130.244C72.2026 138.473 73.1698 142.684 74.7642 144.565C76.2641 146.334 79.7731 147.746 87.2973 146.823C92.4428 146.19 97.7876 144.452 103.362 141.507C108.581 138.746 112.99 135.648 116.633 132.222L137.191 30.2765L137.193 30.2696C137.723 27.6627 139.861 25.66 142.53 25.3356C142.532 25.3354 142.534 25.3352 142.535 25.335L181.177 20.591C181.177 20.591 181.178 20.5909 181.178 20.5908C185.388 20.0734 188.871 23.8344 188.033 27.9926L188.033 27.9934L159.1 171.461L159.099 171.468C158.568 174.076 156.429 176.079 153.758 176.402C153.758 176.402 153.757 176.402 153.756 176.402L118.173 180.772L118.172 180.772C114.324 181.243 110.983 178.12 111.208 174.24L41.5389 42.0169ZM41.5389 42.0169L22.227 137.778C18.7321 155.107 20.4022 169.181 28.6678 178.851C36.9677 188.573 49.7688 191.835 65.8127 189.871L65.8143 189.87C82.2776 187.847 97.4537 182.121 111.295 172.726L111.209 174.235L41.5389 42.0169Z" fill="white" stroke="#F7AE25" stroke-width="8" stroke-linecap="round" stroke-linejoin="round"/>
</svg>
