<svg width="153" height="99" viewBox="0 0 153 99" fill="none" xmlns="http://www.w3.org/2000/svg">
<path d="M33.7616 15.6722L33.7277 15.6764C27.7053 16.4335 22.7671 20.9477 21.5572 26.9802C21.5556 26.988 21.554 26.9958 21.5525 27.0036L12.9711 69.5409L12.9705 69.5439C11.0552 79.0508 19.0141 87.6489 28.6423 86.4661C28.6429 86.466 28.6436 86.4659 28.6442 86.4658C28.6452 86.4657 28.6462 86.4656 28.6472 86.4655L121.319 75.0886C121.327 75.0876 121.335 75.0866 121.344 75.0856C127.204 74.3734 131.945 70.1331 133.393 64.5156L133.399 64.4934L139.628 40.1265L139.628 40.1239C142.102 30.438 134.063 21.2728 124.12 22.4936C124.12 22.4936 124.12 22.4936 124.12 22.4936L78.6238 28.0794C79.8464 18.9581 72.099 10.9628 62.7921 12.1066C62.7907 12.1068 62.7893 12.1069 62.7878 12.1071L33.7616 15.6722Z" stroke="#E22018" stroke-width="24" stroke-linecap="round" stroke-linejoin="round"/>
<path d="M34.1992 19.6424L34.1766 19.6452C29.8443 20.1898 26.2965 23.4369 25.4286 27.7689C25.4276 27.7738 25.4266 27.7787 25.4256 27.7837L16.8421 70.3319L16.8416 70.3339C15.4651 77.1665 21.186 83.346 28.1048 82.4959C28.1059 82.4957 28.107 82.4956 28.1081 82.4955L120.793 71.117C120.798 71.1164 120.803 71.1158 120.808 71.1151C125.018 70.6046 128.428 67.5583 129.469 63.5175L129.473 63.5027L135.702 39.1358L135.703 39.1341C137.48 32.1732 131.703 25.5865 124.558 26.4638C124.558 26.4638 124.558 26.4638 124.558 26.4638L73.5888 32.7215L74.4929 28.2409L74.4933 28.2387C75.8699 21.406 70.1488 15.2263 63.2297 16.0768C63.2293 16.0768 63.229 16.0768 63.2286 16.0769C63.228 16.077 63.2274 16.077 63.2268 16.0771L34.1992 19.6424Z" stroke="#FE5F00" stroke-width="16" stroke-linecap="round" stroke-linejoin="round"/>
<path d="M34.7369 23.6126L34.7369 23.6125L34.7256 23.614C32.0837 23.9461 29.9265 25.9259 29.4003 28.5568C29.3998 28.5591 29.3993 28.5614 29.3989 28.5637L20.8131 71.1229L20.8129 71.1239C19.9752 75.2821 23.4579 79.0431 27.6675 78.5257C27.668 78.5256 27.6686 78.5255 27.6691 78.5255L120.367 67.1454C120.37 67.1451 120.373 67.1447 120.375 67.1444C122.934 66.8347 125.011 64.9827 125.646 62.5195L125.648 62.5121L131.877 38.1451L131.877 38.1443C132.959 33.9083 129.442 29.9002 125.095 30.434C125.095 30.434 125.095 30.434 125.095 30.434L68.6209 37.3676L70.6219 27.4498L70.6222 27.4487C71.4599 23.2904 67.977 19.5293 63.7674 20.0469C63.7669 20.047 63.7664 20.047 63.7659 20.0471L34.7369 23.6126Z" fill="white" stroke="#F7AE25" stroke-width="8" stroke-linecap="round" stroke-linejoin="round"/>
</svg>
