<svg width="30" height="30" viewBox="0 0 30 30" fill="none" xmlns="http://www.w3.org/2000/svg">
<path d="M22.5004 23.1273C23.5379 23.1273 24.3754 22.2898 24.3754 21.2523C24.3754 20.2148 23.5379 19.3773 22.5004 19.3773C21.4629 19.3773 20.6254 20.2148 20.6254 21.2523C20.6254 22.2898 21.4629 23.1273 22.5004 23.1273ZM24.3754 11.8773H21.2504V15.0023H26.8254L24.3754 11.8773ZM7.50043 23.1273C8.53793 23.1273 9.37543 22.2898 9.37543 21.2523C9.37543 20.2148 8.53793 19.3773 7.50043 19.3773C6.46293 19.3773 5.62543 20.2148 5.62543 21.2523C5.62543 22.2898 6.46293 23.1273 7.50043 23.1273ZM25.0004 10.0023L28.7504 15.0023V21.2523H26.2504C26.2504 23.3273 24.5754 25.0023 22.5004 25.0023C20.4254 25.0023 18.7504 23.3273 18.7504 21.2523H11.2504C11.2504 23.3273 9.57543 25.0023 7.50043 25.0023C5.42543 25.0023 3.75043 23.3273 3.75043 21.2523H1.25043V7.50226C1.25043 6.11476 2.36293 5.00226 3.75043 5.00226H21.2504V10.0023H25.0004ZM3.75043 7.50226V18.7523H4.70043C5.38793 17.9898 6.38793 17.5023 7.50043 17.5023C8.61293 17.5023 9.61293 17.9898 10.3004 18.7523H18.7504V7.50226H3.75043ZM12.5004 8.75226L16.8754 13.1273L12.5004 17.5023V14.3773H6.25043V11.8773H12.5004V8.75226Z" fill="black"/>
</svg>
