<svg width="23" height="24" viewBox="0 0 23 24" fill="none" xmlns="http://www.w3.org/2000/svg">
<path d="M6.97875 4.67828H4.61739C3.57407 4.67828 2.72829 5.52404 2.72829 6.56734V19.7907C2.72829 20.834 3.57407 21.6798 4.61739 21.6798H10.2847" stroke="black" stroke-width="1.62502" stroke-linecap="round"/>
<path d="M13.5906 4.67828H15.9519C16.9953 4.67828 17.841 5.52404 17.841 6.56734V15.0681" stroke="black" stroke-width="1.62502" stroke-linecap="round"/>
<path d="M6.50649 6.94651V5.15191C6.50649 4.89109 6.71794 4.67965 6.97877 4.67965C7.23959 4.67965 7.45502 4.46811 7.4997 4.21114C7.63965 3.40615 8.18211 1.84607 10.2847 1.84607C12.3872 1.84607 12.9297 3.40615 13.0697 4.21114C13.1143 4.46811 13.3298 4.67965 13.5906 4.67965C13.8514 4.67965 14.0629 4.89109 14.0629 5.15191V6.94651C14.0629 7.2595 13.8092 7.51323 13.4961 7.51323H7.07322C6.76023 7.51323 6.50649 7.2595 6.50649 6.94651Z" stroke="black" stroke-width="1.62502" stroke-linecap="round"/>
<path d="M13.5906 20.2649L15.4797 22.1539L20.2024 17.4313" stroke="black" stroke-width="1.62502" stroke-linecap="round" stroke-linejoin="round"/>
</svg>
