<svg width="24" height="24" viewBox="0 0 24 24" fill="none" xmlns="http://www.w3.org/2000/svg">
<path d="M21.12 10.71L12.71 2.28999C12.6165 2.1973 12.5057 2.12398 12.3839 2.07421C12.2621 2.02445 12.1316 1.99923 12 1.99999H2.99999C2.73477 1.99999 2.48042 2.10534 2.29288 2.29288C2.10534 2.48042 1.99999 2.73477 1.99999 2.99999V12C1.99923 12.1316 2.02445 12.2621 2.07421 12.3839C2.12398 12.5057 2.1973 12.6165 2.28999 12.71L10.71 21.12C11.2725 21.6818 12.035 21.9973 12.83 21.9973C13.625 21.9973 14.3875 21.6818 14.95 21.12L21.12 15C21.6818 14.4375 21.9973 13.675 21.9973 12.88C21.9973 12.085 21.6818 11.3225 21.12 10.76V10.71ZM19.71 13.53L13.53 19.7C13.3426 19.8862 13.0892 19.9908 12.825 19.9908C12.5608 19.9908 12.3073 19.8862 12.12 19.7L3.99999 11.59V3.99999H11.59L19.71 12.12C19.8027 12.2134 19.876 12.3242 19.9258 12.4461C19.9755 12.5679 20.0007 12.6984 20 12.83C19.9989 13.0923 19.8947 13.3437 19.71 13.53Z" fill="black"/>
</svg>
