<svg width="24" height="24" viewBox="0 0 24 24" fill="none" xmlns="http://www.w3.org/2000/svg">
<path d="M19.4999 6.75006H4.49988C3.25724 6.75006 2.24988 7.75742 2.24988 9.00006V18.0001C2.24988 19.2427 3.25724 20.2501 4.49988 20.2501H19.4999C20.7425 20.2501 21.7499 19.2427 21.7499 18.0001V9.00006C21.7499 7.75742 20.7425 6.75006 19.4999 6.75006Z" stroke="black" stroke-width="1.5" stroke-linejoin="round"/>
<path d="M19.2824 6.74998V5.34373C19.2823 4.99883 19.206 4.6582 19.0591 4.34615C18.9122 4.0341 18.6982 3.75832 18.4325 3.53849C18.1667 3.31866 17.8557 3.16019 17.5216 3.0744C17.1876 2.98861 16.8387 2.9776 16.4999 3.04217L4.15488 5.1492C3.61878 5.25136 3.13514 5.53741 2.78737 5.958C2.4396 6.37859 2.24951 6.90736 2.24988 7.4531V9.74998" stroke="black" stroke-width="1.5" stroke-linejoin="round"/>
<path d="M17.2499 15C16.9532 15 16.6632 14.9121 16.4165 14.7472C16.1699 14.5824 15.9776 14.3481 15.8641 14.0741C15.7505 13.8 15.7208 13.4984 15.7787 13.2074C15.8366 12.9164 15.9794 12.6492 16.1892 12.4394C16.399 12.2296 16.6663 12.0867 16.9572 12.0289C17.2482 11.971 17.5498 12.0007 17.8239 12.1142C18.098 12.2277 18.3323 12.42 18.4971 12.6667C18.6619 12.9133 18.7499 13.2034 18.7499 13.5C18.7499 13.8979 18.5918 14.2794 18.3105 14.5607C18.0292 14.842 17.6477 15 17.2499 15Z" fill="black"/>
</svg>
